<svg width="144" height="40" viewBox="0 0 144 40" fill="none" xmlns="http://www.w3.org/2000/svg">
<g clip-path="url(#clip0_4673_487)">
<mask id="mask0_4673_487" style="mask-type:luminance" maskUnits="userSpaceOnUse" x="0" y="0" width="144" height="40">
<path d="M143.2 0H0V40H143.2V0Z" fill="white"/>
</mask>
<g mask="url(#mask0_4673_487)">
<path d="M21.1672 33.9496C23.75 33.731 26.2212 32.8 28.306 31.26L32.182 35.86C29.2204 38.1346 25.681 39.5346 21.9648 39.9016C18.2485 40.2686 14.5038 39.5876 11.1545 37.9362C7.8052 36.2846 4.9852 33.7284 3.01378 30.5568C1.04234 27.3852 -0.00177778 23.7252 -0.000364779 19.9909C0.00104822 16.2565 1.04794 12.5972 3.02176 9.42714C4.9956 6.2571 7.81754 3.70298 11.1681 2.05398C14.5186 0.404972 18.2639 -0.273042 21.9798 0.0966951C25.6958 0.466432 29.234 1.86915 32.194 4.14604L28.316 8.74604C26.2326 7.20416 23.7622 6.2709 21.1796 6.0502C18.5972 5.82948 16.0042 6.33 13.6894 7.49598C11.3746 8.66196 9.42898 10.4476 8.06914 12.6541C6.70928 14.8606 5.98866 17.4013 5.9875 19.9931C5.98636 22.585 6.70472 25.1262 8.06262 27.334C9.4205 29.5416 11.3646 31.329 13.6783 32.497C15.9921 33.6652 18.5846 34.168 21.1672 33.9496Z" fill="#0E1011"/>
<path d="M33.558 34.6981L29.682 30.0981H29.688C31.0534 28.7941 32.1404 27.2267 32.883 25.4907C33.6254 23.7547 34.0084 21.8863 34.0084 19.9981C34.0084 18.11 33.6254 16.2415 32.883 14.5055C32.1404 12.7695 31.0534 11.2021 29.688 9.8981L33.568 5.2981C35.5974 7.17164 37.2168 9.44522 38.3242 11.9756C39.4314 14.506 40.0026 17.2383 40.0016 20.0003C40.0008 22.7623 39.4278 25.4943 38.3188 28.0239C37.2098 30.5535 35.5888 32.8259 33.558 34.6981Z" fill="#0E1011"/>
<path d="M113.293 1.20007V33.3201H117.121V1.20007H113.293Z" fill="#0E1011"/>
<path fill-rule="evenodd" clip-rule="evenodd" d="M132.289 30.284C128.197 30.284 125.073 28.04 124.325 24.08H142.761C142.849 23.508 142.893 22.936 142.893 22.364C142.893 16.204 138.581 10.748 131.937 10.748C125.073 10.748 120.409 15.808 120.409 22.32C120.409 28.92 125.117 33.892 132.201 33.892C136.601 33.892 139.945 31.912 141.881 28.92L138.625 27.072C137.525 28.876 135.325 30.284 132.289 30.284ZM124.325 20.736C124.941 16.908 127.801 14.356 131.937 14.356C135.237 14.356 138.361 16.38 139.021 20.736H124.325Z" fill="#0E1011"/>
<path d="M100.934 33.892C94.2898 33.892 89.3618 28.832 89.3618 22.32C89.3618 15.808 94.2898 10.748 100.934 10.748C105.29 10.748 108.986 13.036 110.658 16.512L107.446 18.36C106.346 16.028 103.882 14.488 100.934 14.488C96.5338 14.488 93.1898 17.876 93.1898 22.32C93.1898 26.72 96.5338 30.108 100.934 30.108C103.926 30.108 106.346 28.568 107.578 26.28L110.834 28.172C108.986 31.604 105.246 33.892 100.934 33.892Z" fill="#0E1011"/>
<path d="M89.3714 10.9241C86.5994 10.9241 83.9154 11.9361 82.5074 15.0161V11.3201H78.6794V33.3201H82.5074V21.6601C82.5074 16.4681 86.0714 14.7961 89.3714 14.9281V10.9241Z" fill="#0E1011"/>
<path d="M72.2674 7.31609C70.8154 7.31609 69.6714 6.17209 69.6714 4.76409C69.6714 3.35609 70.8154 2.16809 72.2674 2.16809C73.6754 2.16809 74.8194 3.35609 74.8194 4.76409C74.8194 6.17209 73.6754 7.31609 72.2674 7.31609Z" fill="#0E1011"/>
<path d="M70.3314 33.3201V11.3201H74.1594V33.3201H70.3314Z" fill="#0E1011"/>
<path d="M46.4 22.32C46.4 28.832 51.328 33.892 57.972 33.892C62.284 33.892 66.024 31.604 67.872 28.172L64.616 26.28C63.384 28.568 60.964 30.108 57.972 30.108C53.572 30.108 50.228 26.72 50.228 22.32C50.228 17.876 53.572 14.488 57.972 14.488C60.92 14.488 63.384 16.028 64.484 18.36L67.696 16.512C66.024 13.036 62.328 10.748 57.972 10.748C51.328 10.748 46.4 15.808 46.4 22.32Z" fill="#0E1011"/>
</g>
</g>
<defs>
<clipPath id="clip0_4673_487">
<rect width="143.2" height="40" fill="white"/>
</clipPath>
</defs>
</svg>
