<svg width="148" height="40" viewBox="0 0 148 40" fill="none" xmlns="http://www.w3.org/2000/svg">
<g clip-path="url(#clip0_4673_397)">
<mask id="mask0_4673_397" style="mask-type:luminance" maskUnits="userSpaceOnUse" x="0" y="0" width="148" height="40">
<path d="M148 0H0V40H148V0Z" fill="white"/>
</mask>
<g mask="url(#mask0_4673_397)">
<path fill-rule="evenodd" clip-rule="evenodd" d="M13.0682 15.738C12.4841 14.5244 12.2237 13.1805 12.3122 11.8365C12.4008 10.4926 12.8353 9.1944 13.5736 8.06794C14.3119 6.94148 15.3288 6.02504 16.5258 5.40757C17.7227 4.79009 19.059 4.49255 20.4048 4.54384C21.7508 4.59514 23.0604 4.99354 24.207 5.70035C25.3534 6.40715 26.2976 7.39834 26.948 8.57772C27.5984 9.75712 27.933 11.0846 27.919 12.4314C27.905 13.7782 27.543 15.0984 26.8682 16.264L20.5642 27.2L22.4542 30.474L29.7102 17.906C31.1424 15.3622 31.5132 12.3561 30.7424 9.54039C29.9716 6.72468 28.1214 4.32666 25.5932 2.86692C23.065 1.40719 20.0632 1.00357 17.2393 1.7437C14.4153 2.48382 11.9973 4.30795 10.5102 6.82004C9.72038 8.16967 9.22858 9.6727 9.06782 11.2281C8.90706 12.7836 9.08108 14.3554 9.57818 15.838C10.0837 15.7748 10.5927 15.7427 11.1022 15.742L13.0682 15.738ZM38.4982 22.098C37.7146 20.7226 36.6424 19.5331 35.3554 18.6116C34.0682 17.6901 32.5968 17.0584 31.0422 16.76C30.8448 17.2317 30.6184 17.6905 30.3642 18.134L29.3762 19.844C30.7246 19.9269 32.0284 20.358 33.1604 21.0952C34.2924 21.8324 35.214 22.8508 35.835 24.0504C36.456 25.2502 36.7552 26.5906 36.7034 27.9406C36.6516 29.2904 36.2508 30.604 35.5398 31.7526C34.8288 32.9014 33.832 33.846 32.647 34.4946C31.4618 35.143 30.1288 35.473 28.778 35.4524C27.4272 35.4318 26.1048 35.0612 24.94 34.377C23.7752 33.6926 22.8078 32.7178 22.1322 31.548L15.8382 20.648H12.0602L19.2962 33.184C19.545 33.6118 19.8209 34.0234 20.1222 34.416L20.1822 34.494C21.2128 35.8206 22.5346 36.8922 24.0458 37.626C25.5568 38.36 27.2164 38.7362 28.8962 38.726C30.842 38.7258 32.7534 38.2134 34.4384 37.2404C36.1234 36.2674 37.5228 34.868 38.4956 33.183C39.4686 31.4978 39.9808 29.5864 39.9808 27.6406C39.981 25.6948 39.4688 23.7832 38.4962 22.098H38.4982ZM14.7114 34.5704C15.8935 33.9544 16.8983 33.0462 17.6301 31.932L18.5881 33.6C18.8532 34.0572 19.1486 34.4962 19.4721 34.914C18.4367 36.1182 17.1518 37.0828 15.7065 37.741C14.2613 38.3992 12.6902 38.7354 11.1021 38.726C9.63386 38.7458 8.17634 38.4736 6.81414 37.9254C5.45196 37.3772 4.21226 36.5638 3.16702 35.5324C2.12178 34.5012 1.29183 33.2726 0.725362 31.9178C0.158892 30.5632 -0.132812 29.1094 -0.132812 27.641C-0.132812 26.1726 0.158892 24.719 0.725362 23.3642C1.29183 22.0096 2.12178 20.7808 3.16702 19.7496C4.21226 18.7183 5.45196 17.9049 6.81414 17.3567C8.17634 16.8085 9.63386 16.5363 11.1021 16.556H25.6L23.716 19.8281H11.1021C9.73086 19.8287 8.38394 20.1902 7.19664 20.8762C6.00932 21.5622 5.02346 22.5484 4.33802 23.7362C3.6526 24.9238 3.29178 26.2708 3.29178 27.642C3.2918 29.0134 3.65264 30.3604 4.33808 31.548C5.00436 32.7026 5.95502 33.6672 7.09958 34.3504C8.24414 35.0336 9.5445 35.4124 10.8769 35.451C12.2093 35.4894 13.5293 35.1862 14.7114 34.5704Z" fill="#0E1011"/>
<path d="M67.2327 32.4039L66.6567 29.6679L66.3687 29.5599C66.1527 29.7039 65.8647 29.8119 65.5407 29.8119C64.9647 29.8119 64.4607 29.4879 63.8487 28.8039L58.6647 22.7199L65.7927 15.0519L65.6847 14.7999H61.4727L54.0207 23.0079V8.46392L53.7327 8.24792L50.0967 8.78792V32.7999H54.0207V26.8239L55.7847 24.9159L60.8607 31.0359C61.9407 32.3679 63.3087 33.2319 65.0367 33.2319C65.9367 33.2319 66.6207 33.0159 67.0887 32.6919L67.2327 32.4039Z" fill="#0E1011"/>
<path fill-rule="evenodd" clip-rule="evenodd" d="M118.488 14.3679C123.96 14.3679 127.668 18.5439 127.668 23.8C127.668 29.056 123.96 33.232 118.488 33.232C115.932 33.232 113.772 32.188 112.224 30.604V32.8H108.696V8.82394L112.368 8.28394L112.62 8.46394V16.6359C114.132 15.2319 116.148 14.3679 118.488 14.3679ZM118.02 29.812C121.404 29.812 123.636 27.148 123.636 23.8C123.636 20.488 121.404 17.7879 118.02 17.7879C114.852 17.7879 112.332 19.8759 112.332 23.8C112.332 27.724 114.852 29.812 118.02 29.812Z" fill="#0E1011"/>
<path fill-rule="evenodd" clip-rule="evenodd" d="M147.284 29.704L147.86 32.368L147.716 32.62C147.212 32.98 146.456 33.232 145.556 33.232C143.936 33.232 142.748 32.368 142.28 30.892C140.732 32.368 138.5 33.232 136.124 33.232C132.416 33.232 128.996 31.18 128.996 27.292C128.996 23.296 132.596 21.46 137.024 21.46C138.968 21.46 140.48 21.82 141.776 22.288V21.28C141.776 18.688 139.436 17.428 136.952 17.428C134.9 17.428 133.316 18.292 132.056 19.516H131.768L129.788 17.644V17.356C131.732 15.484 134.216 14.368 137.312 14.368C141.2 14.368 145.628 16.096 145.628 21.28V28.228C145.628 29.2 145.808 29.812 146.456 29.812C146.708 29.812 146.888 29.704 147.032 29.596L147.284 29.704ZM141.776 26.284V24.952C140.84 24.592 139.292 24.124 137.528 24.124C134.684 24.124 132.92 25.348 132.92 27.292C132.92 29.344 134.864 30.352 136.916 30.352C139.4 30.352 141.776 28.804 141.776 26.284Z" fill="#0E1011"/>
<path d="M105.155 21.964C105.155 17.464 102.239 14.368 97.667 14.368C95.255 14.368 93.203 15.232 91.799 16.636C91.331 15.196 90.215 14.368 88.559 14.368C87.623 14.368 86.831 14.62 86.327 14.98L86.183 15.232L86.759 17.896L87.011 18.004C87.155 17.896 87.335 17.788 87.587 17.788C88.271 17.788 88.415 18.4 88.415 19.372V32.8H92.375V22.288C92.375 19.552 94.211 17.752 96.911 17.752C99.611 17.752 101.231 19.552 101.231 22.288V32.8H105.155V21.964Z" fill="#0E1011"/>
<path fill-rule="evenodd" clip-rule="evenodd" d="M85.204 29.704L85.78 32.368L85.636 32.62C85.132 32.98 84.376 33.232 83.476 33.232C81.856 33.232 80.668 32.368 80.2 30.892C78.652 32.368 76.42 33.232 74.044 33.232C70.336 33.232 66.916 31.18 66.916 27.292C66.916 23.296 70.516 21.46 74.944 21.46C76.888 21.46 78.4 21.82 79.696 22.288V21.28C79.696 18.688 77.356 17.428 74.872 17.428C72.82 17.428 71.236 18.292 69.976 19.516H69.688L67.708 17.644V17.356C69.652 15.484 72.136 14.368 75.232 14.368C79.12 14.368 83.548 16.096 83.548 21.28V28.228C83.548 29.2 83.728 29.812 84.376 29.812C84.628 29.812 84.808 29.704 84.952 29.596L85.204 29.704ZM79.696 26.284V24.952C78.76 24.592 77.212 24.124 75.448 24.124C72.604 24.124 70.84 25.348 70.84 27.292C70.84 29.344 72.784 30.352 74.836 30.352C77.32 30.352 79.696 28.804 79.696 26.284Z" fill="#0E1011"/>
</g>
</g>
<defs>
<clipPath id="clip0_4673_397">
<rect width="148" height="40" fill="white"/>
</clipPath>
</defs>
</svg>
